<svg width="217" height="219" viewBox="0 0 217 219" fill="none" xmlns="http://www.w3.org/2000/svg">
<path id="Vector" d="M216.139 63.2548L211.341 65.6983C205.815 54.776 198.493 44.867 189.685 36.3878C146.426 -5.35464 77.3993 -3.98991 35.812 39.43C-5.77525 82.8499 -4.41559 152.134 38.8429 193.877C47.0762 201.838 56.5085 208.445 66.7924 213.457L64.4453 218.316C48.1449 210.372 33.9618 198.649 23.0677 184.115C12.1737 169.581 4.88148 152.653 1.79363 134.731C-1.29422 116.809 -0.0890891 98.4071 5.30945 81.045C10.708 63.6829 20.145 47.8594 32.8407 34.8818C45.5364 21.9042 61.1264 12.1451 78.3226 6.41078C95.5189 0.676456 113.828 -0.868477 131.736 1.90363C149.645 4.67573 166.64 11.6853 181.316 22.3532C195.992 33.0211 207.928 47.041 216.139 63.2548Z" fill="#E6E6E6"/>
</svg>
