<svg width="50" height="37" viewBox="0 0 50 37" fill="none" xmlns="http://www.w3.org/2000/svg">
<path id="Vector" d="M49.6379 30.1163C29.9526 35.5636 8.39636 39.6643 0.672379 33.3026C4.90131 26.2361 7.34046 19.2711 7.54738 12.4326C7.59401 9.30366 8.85657 6.31679 11.0659 4.10886C12.5285 2.69059 14.2939 1.62557 16.2281 0.99473C18.1622 0.363891 20.2141 0.183828 22.228 0.468211L27.3368 1.1878C27.5088 1.21203 27.6799 1.23952 27.8501 1.27029C30.3022 1.73658 32.5473 2.96195 34.2702 4.77438C35.9931 6.58681 37.1073 8.89528 37.4564 11.3758C38.5327 18.791 42.1522 25.2105 49.6379 30.1163Z" fill="#03183F"/>
</svg>
