<svg width="19" height="13" viewBox="0 0 19 13" fill="none" xmlns="http://www.w3.org/2000/svg">
<path id="Vector" d="M4.62763 11.7494L0.935726 7.5407C0.623211 7.18555 0.450745 6.72804 0.450745 6.2542C0.450745 5.78037 0.623211 5.32285 0.935726 4.96771L4.63483 0.76264C4.81535 0.556989 5.03716 0.392 5.28571 0.27849C5.53426 0.164981 5.80391 0.105532 6.07697 0.104038H16.2441C16.7576 0.103082 17.2504 0.306894 17.6142 0.670654C17.9779 1.03441 18.1828 1.52832 18.1838 2.04372V10.4647C18.1848 10.9801 17.9817 11.4748 17.6193 11.8399C17.2569 12.205 16.7648 12.4107 16.2513 12.4117H6.08059C5.80543 12.4113 5.5335 12.352 5.28296 12.2378C5.03242 12.1236 4.80901 11.9571 4.62763 11.7494Z" fill="#E6E6E6"/>
</svg>
