<svg width="22" height="22" viewBox="0 0 22 22" fill="none" xmlns="http://www.w3.org/2000/svg">
<path id="Vector" d="M10.7738 21.1293C8.70585 21.1294 6.68439 20.5139 4.96498 19.3607C3.24557 18.2075 1.90545 16.5685 1.11409 14.6509C0.322731 12.7333 0.115684 10.6231 0.519114 8.58737C0.922545 6.55161 1.91834 4.68165 3.38058 3.21395C4.84281 1.74626 6.70582 0.746746 8.734 0.34181C10.7622 -0.0631268 12.8644 0.144693 14.7749 0.939005C16.6854 1.73332 18.3184 3.07845 19.4673 4.80428C20.6161 6.53011 21.2293 8.55914 21.2293 10.6348C21.2262 13.4171 20.1236 16.0846 18.1634 18.052C16.2033 20.0195 13.5458 21.1262 10.7738 21.1293ZM10.7738 0.863923C8.84847 0.863923 6.96641 1.43699 5.36558 2.51063C3.76475 3.58426 2.51706 5.11024 1.78028 6.89562C1.0435 8.68101 0.85072 10.6456 1.22633 12.541C1.60193 14.4363 2.52906 16.1773 3.89046 17.5438C5.25185 18.9103 6.98636 19.8409 8.87466 20.2179C10.763 20.5949 12.7202 20.4014 14.499 19.6618C16.2777 18.9223 17.7981 17.67 18.8677 16.0632C19.9373 14.4564 20.5083 12.5673 20.5083 10.6348C20.5053 8.0443 19.4788 5.56075 17.6539 3.729C15.8289 1.89725 13.3546 0.866871 10.7738 0.863923Z" fill="#03183F"/>
</svg>
