<svg width="13" height="19" viewBox="0 0 13 19" fill="none" xmlns="http://www.w3.org/2000/svg">
<path id="Vector" d="M12.099 14.2355L7.91672 17.9484C7.56255 18.2613 7.1069 18.434 6.63504 18.434C6.16318 18.434 5.70749 18.2613 5.35333 17.9484L1.16386 14.2355C0.958976 14.0543 0.794616 13.8316 0.681528 13.5822C0.56844 13.3327 0.509179 13.062 0.50769 12.7879V2.57198C0.508643 2.05625 0.713435 1.56196 1.0771 1.19762C1.44075 0.833281 1.93357 0.628652 2.44739 0.62865H10.8299C11.3433 0.627695 11.8362 0.831507 12.2 1.19527C12.5637 1.55903 12.7686 2.05294 12.7696 2.56833V12.7807C12.7673 13.0571 12.7063 13.3298 12.5907 13.5807C12.475 13.8316 12.3074 14.0548 12.099 14.2355Z" fill="#E6E6E6"/>
</svg>
