<svg width="39" height="59" viewBox="0 0 39 59" fill="none" xmlns="http://www.w3.org/2000/svg">
<path id="Vector" d="M27.6268 48.4666L35.2797 50.0505C35.8642 50.1715 36.4146 50.4216 36.8908 50.7827C37.367 51.1438 37.7571 51.6068 38.0329 52.1381C38.3086 52.6694 38.463 53.2556 38.4848 53.8543C38.5067 54.4529 38.3954 55.0489 38.1592 55.599C37.9308 56.1306 37.5912 56.6067 37.1634 56.9949C36.7355 57.3831 36.2295 57.6743 35.6796 57.8488C35.1297 58.0233 34.5488 58.077 33.9764 58.0062C33.404 57.9354 32.8534 57.7418 32.3622 57.4385L20.6559 50.2117L0.7724 3.29506L11.071 0.304993L27.6268 48.4666Z" fill="#A0616A"/>
</svg>
