<svg width="20" height="60" viewBox="0 0 20 60" fill="none" xmlns="http://www.w3.org/2000/svg">
<path id="Vector" d="M5.34586 44.0219L1.40346 51.7162C1.05556 52.3952 0.854771 53.1404 0.814282 53.9029C0.773793 54.6653 0.894541 55.4277 1.16856 56.14C1.44258 56.8523 1.86366 57.4983 2.40416 58.0355C2.94466 58.5728 3.59235 58.9891 4.30461 59.2572C5.05846 59.541 5.86606 59.6517 6.6681 59.5811C7.47013 59.5106 8.24623 59.2606 8.93942 58.8495C9.6326 58.4385 10.2252 57.8768 10.6738 57.2058C11.1224 56.5348 11.4156 55.7714 11.5318 54.9717L13.1771 43.6476L19.1438 15.2002L18.7709 0.976532H6.83754C10.9079 11.5557 8.88866 27.1601 5.34586 44.0219Z" fill="#FFB8B8"/>
</svg>
