<svg width="12" height="11" viewBox="0 0 12 11" fill="none" xmlns="http://www.w3.org/2000/svg">
<path id="Vector" d="M5.78614 10.8747C4.71653 10.8747 3.67094 10.5564 2.78158 9.95991C1.89223 9.36345 1.19905 8.51568 0.789727 7.5238C0.380402 6.53193 0.273296 5.4405 0.481965 4.38753C0.690634 3.33457 1.20573 2.36735 1.96206 1.60821C2.71839 0.849057 3.68198 0.332072 4.73104 0.122621C5.78011 -0.086831 6.86749 0.0206509 7.85569 0.431494C8.84388 0.842338 9.68851 1.53809 10.2828 2.43075C10.877 3.32341 11.1942 4.37289 11.1942 5.44649C11.1926 6.88565 10.6223 8.26542 9.60848 9.28306C8.59462 10.3007 7.21997 10.8731 5.78614 10.8747ZM5.78614 0.742017C4.85914 0.742016 3.95296 1.01792 3.18218 1.53486C2.4114 2.05179 1.81064 2.78653 1.45589 3.64616C1.10114 4.50579 1.00833 5.45172 1.18918 6.3643C1.37003 7.27688 1.81642 8.11513 2.47191 8.77306C3.1274 9.43099 3.96254 9.87904 4.87174 10.0606C5.78093 10.2421 6.72335 10.1489 7.5798 9.79286C8.43624 9.43679 9.16824 8.83379 9.68325 8.06015C10.1983 7.2865 10.4732 6.37695 10.4732 5.44649C10.4717 4.19922 9.97748 3.00344 9.0988 2.12149C8.22012 1.23954 7.02878 0.743429 5.78614 0.742017Z" fill="#03183F"/>
</svg>
