<svg width="30" height="25" viewBox="0 0 30 25" fill="none" xmlns="http://www.w3.org/2000/svg">
<path id="Vector" d="M29.3867 13.1044C29.6251 11.5043 29.525 9.8718 29.0928 8.31318C28.6606 6.75457 27.9062 5.30485 26.8785 4.05847C24.8426 1.64022 21.4299 -0.339099 15.768 0.594637C3.41486 2.63193 -0.147335 12.9542 1.06292 15.5501C2.27317 18.146 5.98277 24.1636 5.98277 24.1636C5.98277 24.1636 3.26021 18.2068 6.21509 16.9942C9.16997 15.7817 20.6053 11.0051 24.5965 13.157C25.7264 13.7264 26.6857 14.5862 27.3768 15.6487C28.0679 16.7113 28.4662 17.9387 28.531 19.206L29.3867 13.1044Z" fill="#03183F"/>
</svg>
