<svg width="13" height="18" viewBox="0 0 13 18" fill="none" xmlns="http://www.w3.org/2000/svg">
<path id="Vector" d="M12.0989 4.27288L7.9167 0.563602C7.56253 0.250643 7.10688 0.0779877 6.63503 0.0779877C6.16317 0.0779877 5.70748 0.250643 5.35332 0.563602L1.16386 4.27652C0.958978 4.45771 0.794618 4.68035 0.681531 4.92982C0.568443 5.1793 0.509182 5.44996 0.507694 5.72404V15.9291C0.506742 16.4445 0.70983 16.9392 1.07224 17.3043C1.43464 17.6694 1.9267 17.8751 2.44018 17.8761H10.8299C11.3434 17.877 11.8362 17.6732 12.1999 17.3094C12.5637 16.9457 12.7686 16.4518 12.7696 15.9364V5.72767C12.7673 5.45126 12.7063 5.1785 12.5906 4.92764C12.475 4.67677 12.3074 4.45355 12.0989 4.27288Z" fill="#E6E6E6"/>
</svg>
