<svg width="54" height="33" viewBox="0 0 54 33" fill="none" xmlns="http://www.w3.org/2000/svg">
<path id="Vector" d="M37.111 32.1403L11.9907 12.7245C11.7299 12.523 11.4433 12.3577 11.1385 12.2332L7.48729 10.7422C4.55473 9.5446 -1.03103 5.56131 1.69321 1.45971C3.88958 -1.84715 12.2969 4.0768 13.3311 6.27147C13.6581 6.96209 14.1941 7.53128 14.8628 7.89768L19.9677 10.7055C20.0918 10.7738 20.2199 10.8348 20.3511 10.8882L39.7869 18.7954C40.3256 19.0146 40.9087 19.1015 41.4877 19.0491C42.0667 18.9967 42.6248 18.8063 43.1158 18.4938L46.6395 16.2512C47.1409 15.9321 47.7122 15.7405 48.3039 15.6929C48.8957 15.6452 49.4901 15.7431 50.0357 15.9779C50.5814 16.2127 51.0617 16.5774 51.4353 17.0405C51.8089 17.5036 52.0645 18.0511 52.1799 18.6356L53.3445 24.5352C53.5121 25.3846 53.375 26.2662 52.9572 27.0238C52.5394 27.7814 51.868 28.3662 51.0618 28.6747L40.6414 32.6614C40.0576 32.8847 39.4266 32.9541 38.8085 32.8629C38.1904 32.7716 37.6059 32.5229 37.111 32.1403Z" fill="#FFB8B8"/>
</svg>
