<svg width="26" height="26" viewBox="0 0 26 26" fill="none" xmlns="http://www.w3.org/2000/svg">
<path id="Vector" d="M19.032 18.6943C18.9968 18.7081 18.9617 18.7218 18.9265 18.7354C16.6531 21.385 14.1553 23.5455 11.0149 24.305C9.63742 25.2748 7.95233 25.7013 6.28143 25.5031C4.61052 25.305 3.07087 24.496 1.95645 23.2308C0.905443 22.0375 0.300124 20.5148 0.244027 18.9231C0.187931 17.3314 0.684539 15.7696 1.64891 14.5048L11.0222 2.21127C15.0341 3.52725 18.9283 3.1395 22.6358 0.0475616L24.6568 4.45856C25.2582 5.75834 25.5894 7.16747 25.6302 8.59998C25.671 10.0325 25.4206 11.4583 24.8943 12.7905C24.3679 14.1226 23.5766 15.3332 22.5687 16.3482C21.5608 17.3633 20.3574 18.1615 19.032 18.6943Z" fill="#03183F"/>
</svg>
