<svg width="18" height="13" viewBox="0 0 18 13" fill="none" xmlns="http://www.w3.org/2000/svg">
<path id="Vector" d="M13.6423 11.7494L17.3414 7.54427C17.6532 7.18878 17.8253 6.73139 17.8253 6.25777C17.8253 5.78415 17.6532 5.32677 17.3414 4.97128L13.6423 0.766225C13.4617 0.56075 13.2398 0.395871 12.9913 0.282377C12.7428 0.168882 12.4732 0.109325 12.2002 0.107605H2.03304C1.51922 0.108561 1.02677 0.314117 0.663784 0.679133C0.300797 1.04415 0.0969292 1.5388 0.0969272 2.05453V10.4683C0.0959753 10.9837 0.299047 11.4784 0.661455 11.8435C1.02386 12.2086 1.51592 12.4142 2.0294 12.4152H12.2038C12.4768 12.4123 12.7461 12.3515 12.994 12.2367C13.2419 12.122 13.4629 11.9559 13.6423 11.7494Z" fill="#E6E6E6"/>
</svg>
